<svg width="34" height="17" viewBox="0 0 34 17" fill="none" xmlns="http://www.w3.org/2000/svg">
<path d="M7.93027 16.9056H7.88669C6.58296 16.8987 5.30102 16.567 4.15443 15.9398C3.00784 15.3126 2.03198 14.4093 1.31329 13.3098C0.594612 12.2104 0.155291 10.9487 0.0342455 9.63669C-0.0868003 8.32464 0.114165 7.00265 0.619341 5.78785C1.12452 4.57305 1.91831 3.50293 2.93041 2.67227C3.9425 1.84161 5.14166 1.27606 6.42166 1.0257C7.70166 0.77535 9.023 0.847926 10.2686 1.237C11.5142 1.62608 12.6457 2.31965 13.5628 3.25627L14.918 4.63862L12.5023 7.05719L11.1471 5.67484C10.5099 5.02443 9.69434 4.58206 8.80586 4.40487C7.91737 4.22769 6.99673 4.32383 6.16286 4.68088C5.32899 5.03793 4.62018 5.63948 4.12801 6.40784C3.63583 7.1762 3.38289 8.07607 3.40186 8.99121C3.4226 9.88498 3.70186 10.753 4.20516 11.4882C4.70846 12.2234 5.41376 12.7935 6.23398 13.1282C7.0542 13.4628 7.95342 13.5473 8.82063 13.3713C9.68784 13.1953 10.4851 12.7664 11.1139 12.1377L17.5308 5.72938L19.9092 8.18571L17.9293 10.1617L13.5047 14.5877C12.7718 15.3253 11.9022 15.9097 10.9457 16.3074C9.98923 16.7052 8.96455 16.9084 7.93027 16.9056Z" fill="white"/>
<path d="M25.5591 16.9916C24.5112 16.993 23.4736 16.784 22.5063 16.3768C21.539 15.9695 20.6614 15.3721 19.9245 14.6192L18.59 13.2578L21.0057 10.8413L22.3402 12.2027C22.7549 12.6454 23.253 13 23.8052 13.2455C24.3574 13.491 24.9525 13.6225 25.5557 13.6323C26.1588 13.6421 26.7578 13.53 27.3176 13.3026C27.8773 13.0752 28.3864 12.737 28.815 12.308C29.2436 11.879 29.5831 11.3677 29.8135 10.8042C30.044 10.2407 30.1607 9.63642 30.1568 9.02672C30.153 8.41702 30.0287 7.81424 29.7912 7.25377C29.5537 6.69331 29.2078 6.18645 28.7738 5.76297C28.3429 5.31738 27.8255 4.96677 27.254 4.73319C26.6825 4.49962 26.0694 4.38815 25.4532 4.4058C24.2954 4.43141 23.1915 4.90519 22.3693 5.7294L16.1162 11.972L13.7358 9.53242L15.5579 7.72006L19.9826 3.29615C20.9077 2.37052 22.044 1.68943 23.2913 1.31305C24.5386 0.936676 25.8584 0.876599 27.1342 1.13813C28.4099 1.39966 29.6022 1.97474 30.6059 2.81257C31.6095 3.6504 32.3935 4.72518 32.8887 5.94196C33.3838 7.15873 33.5748 8.48004 33.4448 9.78913C33.3148 11.0982 32.8678 12.3548 32.1433 13.4479C31.4188 14.5409 30.4391 15.4368 29.2908 16.0563C28.1424 16.6758 26.8608 16.9999 25.5591 17V16.9916Z" fill="white"/>
</svg>
