<svg width="108" height="20" viewBox="0 0 108 20" fill="none" xmlns="http://www.w3.org/2000/svg">
<g clip-path="url(#clip0_1_2065)">
<path d="M16.775 15C15.315 15 13.8483 13.9733 13.4692 12.5025H6.13917C5.76 13.9733 4.685 15 3.225 15C1.44667 15 0 13.6067 0 11.8942C0 11.1975 0.24 10.5358 0.6675 10C0.24 9.46417 0 8.8025 0 8.10583C0 6.39333 1.44667 5 3.225 5C4.685 5 5.95583 6.14583 6.335 7.5H13.6658C14.045 6.14583 15.3158 5 16.7758 5C18.5533 5 20 6.39333 20 8.10583C20 8.8025 19.76 9.46417 19.3325 10C19.76 10.5358 20 11.1975 20 11.8942C20 13.6067 18.5533 15 16.775 15Z" fill="#FFB800"/>
</g>
<g clip-path="url(#clip1_1_2065)">
<path d="M38.775 15C37.315 15 35.8483 13.9733 35.4692 12.5025H28.1392C27.76 13.9733 26.685 15 25.225 15C23.4467 15 22 13.6067 22 11.8942C22 11.1975 22.24 10.5358 22.6675 10C22.24 9.46417 22 8.8025 22 8.10583C22 6.39333 23.4467 5 25.225 5C26.685 5 27.9558 6.14583 28.335 7.5H35.6658C36.045 6.14583 37.3158 5 38.7758 5C40.5533 5 42 6.39333 42 8.10583C42 8.8025 41.76 9.46417 41.3325 10C41.76 10.5358 42 11.1975 42 11.8942C42 13.6067 40.5533 15 38.775 15Z" fill="#FFB800"/>
</g>
<g clip-path="url(#clip2_1_2065)">
<path d="M60.775 15C59.315 15 57.8483 13.9733 57.4692 12.5025H50.1392C49.76 13.9733 48.685 15 47.225 15C45.4467 15 44 13.6067 44 11.8942C44 11.1975 44.24 10.5358 44.6675 10C44.24 9.46417 44 8.8025 44 8.10583C44 6.39333 45.4467 5 47.225 5C48.685 5 49.9558 6.14583 50.335 7.5H57.6658C58.045 6.14583 59.3158 5 60.7758 5C62.5533 5 64 6.39333 64 8.10583C64 8.8025 63.76 9.46417 63.3325 10C63.76 10.5358 64 11.1975 64 11.8942C64 13.6067 62.5533 15 60.775 15Z" fill="#FFB800"/>
</g>
<g clip-path="url(#clip3_1_2065)">
<path d="M82.775 15C81.315 15 79.8483 13.9733 79.4692 12.5025H72.1392C71.76 13.9733 70.685 15 69.225 15C67.4467 15 66 13.6067 66 11.8942C66 11.1975 66.24 10.5358 66.6675 10C66.24 9.46417 66 8.8025 66 8.10583C66 6.39333 67.4467 5 69.225 5C70.685 5 71.9558 6.14583 72.335 7.5H79.6658C80.045 6.14583 81.3158 5 82.7758 5C84.5533 5 86 6.39333 86 8.10583C86 8.8025 85.76 9.46417 85.3325 10C85.76 10.5358 86 11.1975 86 11.8942C86 13.6067 84.5533 15 82.775 15Z" fill="#FFB800"/>
</g>
<g clip-path="url(#clip4_1_2065)">
<path d="M105.083 15C103.617 15 102.399 13.9117 102.197 12.5H93.8033C93.6008 13.9117 92.3833 15 90.9167 15C89.3083 15 88 13.6917 88 12.0833C88 11.2908 88.3192 10.5442 88.875 10C88.3192 9.45583 88 8.70917 88 7.91667C88 6.30833 89.3083 5 90.9167 5C92.3833 5 93.6008 6.08833 93.8033 7.5H102.196C102.398 6.08833 103.616 5 105.083 5C106.692 5 108 6.30833 108 7.91667C108 8.70917 107.681 9.45583 107.125 10C107.681 10.5442 108 11.2908 108 12.0833C108 13.6917 106.692 15 105.083 15ZM93.4167 11.6667H102.583C102.813 11.6667 103 11.8533 103 12.0833C103 13.2317 103.935 14.1667 105.083 14.1667C106.232 14.1667 107.167 13.2317 107.167 12.0833C107.167 11.385 106.819 10.735 106.236 10.3467C106.12 10.2692 106.05 10.1392 106.05 10C106.05 9.86083 106.119 9.73083 106.236 9.65333C106.819 9.265 107.167 8.615 107.167 7.91667C107.167 6.76833 106.232 5.83333 105.083 5.83333C103.935 5.83333 103 6.76833 103 7.91667C103 8.14667 102.813 8.33333 102.583 8.33333H93.4167C93.1867 8.33333 93 8.14667 93 7.91667C93 6.76833 92.065 5.83333 90.9167 5.83333C89.7683 5.83333 88.8333 6.76833 88.8333 7.91667C88.8333 8.615 89.1808 9.265 89.7642 9.65333C89.88 9.73083 89.95 9.86083 89.95 10C89.95 10.1392 89.8808 10.2692 89.7642 10.3467C89.1808 10.735 88.8333 11.385 88.8333 12.0833C88.8333 13.2317 89.7683 14.1667 90.9167 14.1667C92.065 14.1667 93 13.2317 93 12.0833C93 11.8533 93.1867 11.6667 93.4167 11.6667Z" fill="#BFBFBF"/>
</g>
<defs>
<clipPath id="clip0_1_2065">
<rect width="20" height="20" fill="white"/>
</clipPath>
<clipPath id="clip1_1_2065">
<rect width="20" height="20" fill="white" transform="translate(22)"/>
</clipPath>
<clipPath id="clip2_1_2065">
<rect width="20" height="20" fill="white" transform="translate(44)"/>
</clipPath>
<clipPath id="clip3_1_2065">
<rect width="20" height="20" fill="white" transform="translate(66)"/>
</clipPath>
<clipPath id="clip4_1_2065">
<rect width="20" height="20" fill="white" transform="translate(88)"/>
</clipPath>
</defs>
</svg>
